<svg width="15" height="16" viewBox="0 0 15 16" fill="none" xmlns="http://www.w3.org/2000/svg">
<path d="M14.9963 15.4999V15.4993H15V9.98076C15 7.28105 14.4247 5.20142 11.3004 5.20142C9.79839 5.20142 8.79045 6.03402 8.37897 6.82337H8.33552V5.45346H5.37317V15.4993H8.45779V10.525C8.45779 9.21524 8.70356 7.94877 10.3092 7.94877C11.8912 7.94877 11.9148 9.44345 11.9148 10.609V15.4999H14.9963Z" fill="#F7F7EE"/>
<path d="M0.223877 5.42554H3.35821V15.2763H0.223877V5.42554Z" fill="#F7F7EE"/>
<path d="M1.79104 0.5C0.802303 0.5 0 1.29856 0 2.28269C0 3.26683 0.802303 4.08209 1.79104 4.08209C2.77979 4.08209 3.58209 3.26683 3.58209 2.28269C3.58147 1.29856 2.77916 0.5 1.79104 0.5V0.5Z" fill="#F7F7EE"/>
</svg>
