<svg width="136" height="22" viewBox="0 0 136 22" fill="none" xmlns="http://www.w3.org/2000/svg">
<path d="M7.98864 21H0.769886V0.636363H8.0483C10.0966 0.636363 11.8598 1.04403 13.3381 1.85938C14.8163 2.66809 15.9531 3.83144 16.7486 5.34943C17.5507 6.86742 17.9517 8.68371 17.9517 10.7983C17.9517 12.9195 17.5507 14.7424 16.7486 16.267C15.9531 17.7917 14.8097 18.9616 13.3182 19.777C11.8333 20.5923 10.0568 21 7.98864 21ZM5.07528 17.3111H7.80966C9.08239 17.3111 10.1529 17.0857 11.0213 16.6349C11.8963 16.1776 12.5526 15.4716 12.9901 14.517C13.4342 13.5559 13.6562 12.3163 13.6562 10.7983C13.6562 9.29356 13.4342 8.06392 12.9901 7.10938C12.5526 6.15483 11.8996 5.45218 11.0312 5.00142C10.1629 4.55066 9.09233 4.32528 7.8196 4.32528H5.07528V17.3111ZM38.1737 0.636363V21H34.4549L25.5955 8.18324H25.4464V21H21.141V0.636363H24.9194L33.7092 13.4432H33.8881V0.636363H38.1737ZM59.6982 7.76562H55.343C55.2635 7.20218 55.1011 6.7017 54.8558 6.2642C54.6106 5.82007 54.2957 5.44223 53.9112 5.13068C53.5268 4.81913 53.0826 4.58049 52.5788 4.41477C52.0817 4.24905 51.5414 4.16619 50.9581 4.16619C49.9041 4.16619 48.986 4.42803 48.2038 4.9517C47.4216 5.46875 46.8151 6.22443 46.3842 7.21875C45.9534 8.20644 45.7379 9.40625 45.7379 10.8182C45.7379 12.2699 45.9534 13.4896 46.3842 14.4773C46.8217 15.465 47.4316 16.2107 48.2138 16.7145C48.996 17.2183 49.9008 17.4702 50.9283 17.4702C51.505 17.4702 52.0386 17.3939 52.5291 17.2415C53.0263 17.089 53.4671 16.867 53.8516 16.5753C54.236 16.277 54.5542 15.9157 54.8061 15.4915C55.0646 15.0672 55.2436 14.5833 55.343 14.0398L59.6982 14.0597C59.5855 14.9943 59.3037 15.8958 58.853 16.7642C58.4089 17.6259 57.8089 18.3982 57.0533 19.081C56.3042 19.7571 55.4093 20.294 54.3686 20.6918C53.3345 21.0829 52.1645 21.2784 50.8587 21.2784C49.0424 21.2784 47.4183 20.8674 45.9865 20.0455C44.5613 19.2235 43.4344 18.0336 42.6058 16.4759C41.7839 14.9181 41.3729 13.0322 41.3729 10.8182C41.3729 8.59754 41.7905 6.70833 42.6257 5.15057C43.4609 3.5928 44.5945 2.40625 46.0263 1.59091C47.4581 0.768939 49.0689 0.357954 50.8587 0.357954C52.0386 0.357954 53.1323 0.523674 54.1399 0.855113C55.1541 1.18655 56.0523 1.67045 56.8345 2.30682C57.6167 2.93655 58.2531 3.70881 58.7436 4.62358C59.2408 5.53835 59.5589 6.5857 59.6982 7.76562ZM69.266 21V0.636363H73.5018V8.29261H73.631C73.8166 7.88163 74.0851 7.46401 74.4364 7.03977C74.7944 6.6089 75.2584 6.25095 75.8285 5.96591C76.4052 5.67424 77.1211 5.52841 77.9762 5.52841C79.0898 5.52841 80.1173 5.82008 81.0586 6.40341C81.9999 6.98011 82.7522 7.8518 83.3157 9.01847C83.8791 10.1785 84.1609 11.6335 84.1609 13.3835C84.1609 15.0871 83.8858 16.5256 83.3356 17.6989C82.792 18.8655 82.0496 19.7505 81.1083 20.3537C80.1737 20.9503 79.1263 21.2486 77.9663 21.2486C77.1443 21.2486 76.445 21.1127 75.8683 20.8409C75.2982 20.5691 74.8308 20.2277 74.4663 19.8168C74.1017 19.3991 73.8233 18.9782 73.631 18.554H73.4421V21H69.266ZM73.4123 13.3636C73.4123 14.2718 73.5382 15.0639 73.7901 15.7401C74.042 16.4162 74.4066 16.9432 74.8839 17.321C75.3612 17.6922 75.9412 17.8778 76.6239 17.8778C77.3133 17.8778 77.8967 17.6889 78.3739 17.3111C78.8512 16.9266 79.2125 16.3963 79.4577 15.7202C79.7096 15.0374 79.8356 14.2519 79.8356 13.3636C79.8356 12.482 79.713 11.7064 79.4677 11.0369C79.2224 10.3674 78.8612 9.84375 78.3839 9.46591C77.9066 9.08807 77.32 8.89915 76.6239 8.89915C75.9345 8.89915 75.3512 9.08144 74.8739 9.44602C74.4033 9.81061 74.042 10.3277 73.7901 10.9972C73.5382 11.6667 73.4123 12.4555 73.4123 13.3636ZM91.3423 21.2884C90.3679 21.2884 89.4995 21.1193 88.7372 20.7812C87.9749 20.4366 87.3717 19.9295 86.9276 19.2599C86.4901 18.5838 86.2713 17.742 86.2713 16.7344C86.2713 15.8859 86.4271 15.1733 86.7386 14.5966C87.0502 14.0199 87.4744 13.5559 88.0114 13.2045C88.5483 12.8532 89.1581 12.5881 89.8409 12.4091C90.5303 12.2301 91.2528 12.1042 92.0085 12.0312C92.8968 11.9384 93.6127 11.8523 94.1562 11.7727C94.6998 11.6866 95.0942 11.5606 95.3395 11.3949C95.5848 11.2292 95.7074 10.9839 95.7074 10.6591V10.5994C95.7074 9.9697 95.5085 9.48248 95.1108 9.13778C94.7197 8.79309 94.1629 8.62074 93.4403 8.62074C92.678 8.62074 92.0715 8.78977 91.6207 9.12784C91.17 9.45928 90.8717 9.87689 90.7259 10.3807L86.8082 10.0625C87.0071 9.13447 87.3982 8.33239 87.9815 7.65625C88.5649 6.97348 89.3172 6.44981 90.2386 6.08523C91.1667 5.71401 92.2405 5.52841 93.4602 5.52841C94.3087 5.52841 95.1207 5.62784 95.8963 5.8267C96.6785 6.02557 97.3712 6.33381 97.9744 6.75142C98.5843 7.16903 99.0649 7.70597 99.4162 8.36222C99.7675 9.01184 99.9432 9.79072 99.9432 10.6989V21H95.9261V18.8821H95.8068C95.5616 19.3594 95.2334 19.7803 94.8224 20.1449C94.4115 20.5028 93.9176 20.7846 93.3409 20.9901C92.7642 21.1889 92.098 21.2884 91.3423 21.2884ZM92.5554 18.3651C93.1785 18.3651 93.7287 18.2424 94.206 17.9972C94.6832 17.7453 95.0578 17.4072 95.3295 16.983C95.6013 16.5587 95.7372 16.0781 95.7372 15.5412V13.9205C95.6046 14.0066 95.4223 14.0862 95.1903 14.1591C94.965 14.2254 94.7098 14.2884 94.4247 14.348C94.1397 14.401 93.8546 14.4508 93.5696 14.4972C93.2846 14.5369 93.026 14.5734 92.794 14.6065C92.2969 14.6795 91.8627 14.7955 91.4915 14.9545C91.1203 15.1136 90.8319 15.3291 90.6264 15.6009C90.4209 15.866 90.3182 16.1974 90.3182 16.5952C90.3182 17.1719 90.527 17.6127 90.9446 17.9176C91.3688 18.2159 91.9058 18.3651 92.5554 18.3651ZM107.465 12.1705V21H103.229V5.72727H107.266V8.42188H107.445C107.783 7.53362 108.35 6.83097 109.146 6.31392C109.941 5.79025 110.906 5.52841 112.039 5.52841C113.1 5.52841 114.024 5.76042 114.813 6.22443C115.602 6.68845 116.215 7.35133 116.653 8.21307C117.09 9.06818 117.309 10.089 117.309 11.2756V21H113.073V12.0312C113.08 11.0966 112.841 10.3674 112.357 9.84375C111.873 9.31345 111.207 9.0483 110.359 9.0483C109.789 9.0483 109.285 9.17093 108.847 9.41619C108.416 9.66146 108.078 10.0194 107.833 10.4901C107.594 10.9541 107.472 11.5142 107.465 12.1705ZM124.485 16.6051L124.495 11.5241H125.112L130.004 5.72727H134.866L128.294 13.4034H127.289L124.485 16.6051ZM120.647 21V0.636363H124.883V21H120.647ZM130.193 21L125.699 14.348L128.522 11.3551L135.154 21H130.193Z" fill="white"/>
</svg>
